<svg viewBox="0 0 200 200" xmlns="http://www.w3.org/2000/svg">
  <!-- Strawberry body -->
  <path d="M 100 60 Q 130 80, 130 120 Q 130 160, 100 170 Q 70 160, 70 120 Q 70 80, 100 60 Z" fill="#E63946"/>
  
  <!-- Strawberry shading -->
  <ellipse cx="100" cy="115" rx="35" ry="40" fill="#C1121F" opacity="0.3"/>
  
  <!-- Seeds -->
  <circle cx="80" cy="85" r="3" fill="#FFEB3B" opacity="0.8"/>
  <circle cx="95" cy="80" r="3" fill="#FFEB3B" opacity="0.8"/>
  <circle cx="110" cy="85" r="3" fill="#FFEB3B" opacity="0.8"/>
  <circle cx="120" cy="100" r="3" fill="#FFEB3B" opacity="0.8"/>
  <circle cx="75" cy="105" r="3" fill="#FFEB3B" opacity="0.8"/>
  <circle cx="100" cy="105" r="3" fill="#FFEB3B" opacity="0.8"/>
  <circle cx="125" cy="120" r="3" fill="#FFEB3B" opacity="0.8"/>
  <circle cx="80" cy="130" r="3" fill="#FFEB3B" opacity="0.8"/>
  <circle cx="110" cy="135" r="3" fill="#FFEB3B" opacity="0.8"/>
  
  <!-- Green leaves/crown -->
  <ellipse cx="85" cy="50" rx="8" ry="15" fill="#228B22" transform="rotate(-30 85 50)"/>
  <ellipse cx="100" cy="40" rx="8" ry="15" fill="#228B22" transform="rotate(0 100 40)"/>
  <ellipse cx="115" cy="50" rx="8" ry="15" fill="#228B22" transform="rotate(30 115 50)"/>
  <ellipse cx="80" cy="60" rx="8" ry="12" fill="#2E8B57" transform="rotate(-45 80 60)"/>
  <ellipse cx="120" cy="60" rx="8" ry="12" fill="#2E8B57" transform="rotate(45 120 60)"/>
  
  <!-- Highlight -->
  <ellipse cx="85" cy="90" rx="15" ry="20" fill="#FF6B9D" opacity="0.4"/>
</svg>